<mxfile host="app.diagrams.net" agent="Mozilla/5.0 (Windows NT 10.0; Win64; x64; rv:140.0) Gecko/20100101 Firefox/140.0" version="27.1.6">
  <diagram name="Page-1" id="H9niTNlXuieE0Djbl2PX">
    <mxGraphModel dx="2379" dy="1084" grid="1" gridSize="10" guides="1" tooltips="1" connect="1" arrows="1" fold="1" page="1" pageScale="1" pageWidth="4681" pageHeight="3300" math="0" shadow="0">
      <root>
        <mxCell id="0" />
        <mxCell id="1" parent="0" />
        <mxCell id="ECKgNGIZ7LsBk5RA_S7d-25" style="edgeStyle=orthogonalEdgeStyle;rounded=0;orthogonalLoop=1;jettySize=auto;html=1;entryX=0.5;entryY=0;entryDx=0;entryDy=0;entryPerimeter=0;" edge="1" parent="1" source="ECKgNGIZ7LsBk5RA_S7d-1" target="ECKgNGIZ7LsBk5RA_S7d-19">
          <mxGeometry relative="1" as="geometry">
            <mxPoint x="230" y="1420" as="targetPoint" />
          </mxGeometry>
        </mxCell>
        <mxCell id="ECKgNGIZ7LsBk5RA_S7d-27" value="Asks&lt;br&gt;for data" style="edgeLabel;html=1;align=center;verticalAlign=middle;resizable=0;points=[];" vertex="1" connectable="0" parent="ECKgNGIZ7LsBk5RA_S7d-25">
          <mxGeometry x="-0.3527" relative="1" as="geometry">
            <mxPoint as="offset" />
          </mxGeometry>
        </mxCell>
        <mxCell id="ECKgNGIZ7LsBk5RA_S7d-1" value="MODELS" style="rounded=0;whiteSpace=wrap;html=1;" vertex="1" parent="1">
          <mxGeometry x="290" y="1360" width="120" height="60" as="geometry" />
        </mxCell>
        <mxCell id="ECKgNGIZ7LsBk5RA_S7d-12" style="edgeStyle=orthogonalEdgeStyle;rounded=0;orthogonalLoop=1;jettySize=auto;html=1;" edge="1" parent="1" source="ECKgNGIZ7LsBk5RA_S7d-4" target="ECKgNGIZ7LsBk5RA_S7d-5">
          <mxGeometry relative="1" as="geometry" />
        </mxCell>
        <mxCell id="ECKgNGIZ7LsBk5RA_S7d-13" value="request process" style="edgeLabel;html=1;align=center;verticalAlign=middle;resizable=0;points=[];" vertex="1" connectable="0" parent="ECKgNGIZ7LsBk5RA_S7d-12">
          <mxGeometry x="0.1684" y="-1" relative="1" as="geometry">
            <mxPoint x="1" y="21" as="offset" />
          </mxGeometry>
        </mxCell>
        <mxCell id="ECKgNGIZ7LsBk5RA_S7d-4" value="&lt;div&gt;VIEW&lt;/div&gt;" style="rounded=0;whiteSpace=wrap;html=1;" vertex="1" parent="1">
          <mxGeometry x="560" y="1160" width="120" height="60" as="geometry" />
        </mxCell>
        <mxCell id="ECKgNGIZ7LsBk5RA_S7d-8" style="edgeStyle=orthogonalEdgeStyle;rounded=0;orthogonalLoop=1;jettySize=auto;html=1;" edge="1" parent="1" source="ECKgNGIZ7LsBk5RA_S7d-5" target="ECKgNGIZ7LsBk5RA_S7d-1">
          <mxGeometry relative="1" as="geometry" />
        </mxCell>
        <mxCell id="ECKgNGIZ7LsBk5RA_S7d-9" value="demande data" style="edgeLabel;html=1;align=center;verticalAlign=middle;resizable=0;points=[];" vertex="1" connectable="0" parent="ECKgNGIZ7LsBk5RA_S7d-8">
          <mxGeometry x="0.1619" y="-1" relative="1" as="geometry">
            <mxPoint x="1" y="18" as="offset" />
          </mxGeometry>
        </mxCell>
        <mxCell id="ECKgNGIZ7LsBk5RA_S7d-10" style="edgeStyle=orthogonalEdgeStyle;rounded=0;orthogonalLoop=1;jettySize=auto;html=1;" edge="1" parent="1" source="ECKgNGIZ7LsBk5RA_S7d-5" target="ECKgNGIZ7LsBk5RA_S7d-4">
          <mxGeometry relative="1" as="geometry" />
        </mxCell>
        <mxCell id="ECKgNGIZ7LsBk5RA_S7d-11" value="render content" style="edgeLabel;html=1;align=center;verticalAlign=middle;resizable=0;points=[];" vertex="1" connectable="0" parent="ECKgNGIZ7LsBk5RA_S7d-10">
          <mxGeometry x="0.6561" relative="1" as="geometry">
            <mxPoint y="11" as="offset" />
          </mxGeometry>
        </mxCell>
        <mxCell id="ECKgNGIZ7LsBk5RA_S7d-5" value="CONTROLLER" style="rounded=0;whiteSpace=wrap;html=1;" vertex="1" parent="1">
          <mxGeometry x="420" y="1280" width="120" height="60" as="geometry" />
        </mxCell>
        <mxCell id="ECKgNGIZ7LsBk5RA_S7d-6" style="edgeStyle=orthogonalEdgeStyle;rounded=0;orthogonalLoop=1;jettySize=auto;html=1;entryX=0.551;entryY=1.031;entryDx=0;entryDy=0;entryPerimeter=0;" edge="1" parent="1" source="ECKgNGIZ7LsBk5RA_S7d-1" target="ECKgNGIZ7LsBk5RA_S7d-5">
          <mxGeometry relative="1" as="geometry" />
        </mxCell>
        <mxCell id="ECKgNGIZ7LsBk5RA_S7d-7" value="envoie data" style="edgeLabel;html=1;align=center;verticalAlign=middle;resizable=0;points=[];" vertex="1" connectable="0" parent="ECKgNGIZ7LsBk5RA_S7d-6">
          <mxGeometry x="-0.0176" relative="1" as="geometry">
            <mxPoint x="14" y="-30" as="offset" />
          </mxGeometry>
        </mxCell>
        <mxCell id="ECKgNGIZ7LsBk5RA_S7d-14" value="PLAYER" style="rounded=0;whiteSpace=wrap;html=1;" vertex="1" parent="1">
          <mxGeometry x="780" y="1160" width="120" height="60" as="geometry" />
        </mxCell>
        <mxCell id="ECKgNGIZ7LsBk5RA_S7d-17" value="" style="endArrow=classic;startArrow=classic;html=1;rounded=0;entryX=0;entryY=0.5;entryDx=0;entryDy=0;exitX=1;exitY=0.5;exitDx=0;exitDy=0;" edge="1" parent="1" source="ECKgNGIZ7LsBk5RA_S7d-4" target="ECKgNGIZ7LsBk5RA_S7d-14">
          <mxGeometry width="50" height="50" relative="1" as="geometry">
            <mxPoint x="700" y="1280" as="sourcePoint" />
            <mxPoint x="710" y="1070" as="targetPoint" />
          </mxGeometry>
        </mxCell>
        <mxCell id="ECKgNGIZ7LsBk5RA_S7d-18" value="Interagit&amp;nbsp;&lt;br&gt;&lt;div&gt;avec la view&lt;/div&gt;" style="edgeLabel;html=1;align=center;verticalAlign=middle;resizable=0;points=[];" vertex="1" connectable="0" parent="ECKgNGIZ7LsBk5RA_S7d-17">
          <mxGeometry x="0.3564" y="-1" relative="1" as="geometry">
            <mxPoint x="-17" y="-1" as="offset" />
          </mxGeometry>
        </mxCell>
        <mxCell id="ECKgNGIZ7LsBk5RA_S7d-24" style="edgeStyle=orthogonalEdgeStyle;rounded=0;orthogonalLoop=1;jettySize=auto;html=1;" edge="1" parent="1" source="ECKgNGIZ7LsBk5RA_S7d-19" target="ECKgNGIZ7LsBk5RA_S7d-1">
          <mxGeometry relative="1" as="geometry">
            <Array as="points">
              <mxPoint x="350" y="1480" />
            </Array>
          </mxGeometry>
        </mxCell>
        <mxCell id="ECKgNGIZ7LsBk5RA_S7d-26" value="Parse data" style="edgeLabel;html=1;align=center;verticalAlign=middle;resizable=0;points=[];" vertex="1" connectable="0" parent="ECKgNGIZ7LsBk5RA_S7d-24">
          <mxGeometry x="-0.2696" y="-1" relative="1" as="geometry">
            <mxPoint as="offset" />
          </mxGeometry>
        </mxCell>
        <mxCell id="ECKgNGIZ7LsBk5RA_S7d-19" value="DB" style="shape=cylinder3;whiteSpace=wrap;html=1;boundedLbl=1;backgroundOutline=1;size=15;" vertex="1" parent="1">
          <mxGeometry x="200" y="1440" width="60" height="80" as="geometry" />
        </mxCell>
        <mxCell id="ECKgNGIZ7LsBk5RA_S7d-28" value="Models" style="swimlane;whiteSpace=wrap;html=1;" vertex="1" parent="1">
          <mxGeometry x="1120" y="1140" width="840" height="320" as="geometry">
            <mxRectangle x="280" y="490" width="140" height="30" as="alternateBounds" />
          </mxGeometry>
        </mxCell>
        <mxCell id="ECKgNGIZ7LsBk5RA_S7d-34" value="list mailboxes" style="text;html=1;align=center;verticalAlign=middle;resizable=0;points=[];autosize=1;strokeColor=none;fillColor=none;" vertex="1" parent="ECKgNGIZ7LsBk5RA_S7d-28">
          <mxGeometry x="110" y="250" width="100" height="30" as="geometry" />
        </mxCell>
        <mxCell id="ECKgNGIZ7LsBk5RA_S7d-30" value="list all_letters" style="text;html=1;align=center;verticalAlign=middle;resizable=0;points=[];autosize=1;strokeColor=none;fillColor=none;" vertex="1" parent="ECKgNGIZ7LsBk5RA_S7d-28">
          <mxGeometry x="10" y="250" width="90" height="30" as="geometry" />
        </mxCell>
        <mxCell id="ECKgNGIZ7LsBk5RA_S7d-69" value="new run :" style="text;html=1;align=center;verticalAlign=middle;resizable=0;points=[];autosize=1;strokeColor=none;fillColor=none;" vertex="1" parent="ECKgNGIZ7LsBk5RA_S7d-28">
          <mxGeometry x="10" y="40" width="70" height="30" as="geometry" />
        </mxCell>
        <mxCell id="ECKgNGIZ7LsBk5RA_S7d-37" value="list letters_today" style="text;html=1;align=center;verticalAlign=middle;whiteSpace=wrap;rounded=0;" vertex="1" parent="ECKgNGIZ7LsBk5RA_S7d-28">
          <mxGeometry x="30" y="90" width="90" height="30" as="geometry" />
        </mxCell>
        <mxCell id="ECKgNGIZ7LsBk5RA_S7d-71" value="int letters_delivered" style="text;html=1;align=center;verticalAlign=middle;resizable=0;points=[];autosize=1;strokeColor=none;fillColor=none;" vertex="1" parent="ECKgNGIZ7LsBk5RA_S7d-28">
          <mxGeometry x="24" y="125" width="130" height="30" as="geometry" />
        </mxCell>
        <mxCell id="ECKgNGIZ7LsBk5RA_S7d-54" value="&lt;div&gt;&amp;nbsp;int current_day&lt;/div&gt;" style="text;html=1;align=center;verticalAlign=middle;whiteSpace=wrap;rounded=0;" vertex="1" parent="ECKgNGIZ7LsBk5RA_S7d-28">
          <mxGeometry x="20" y="60" width="110" height="30" as="geometry" />
        </mxCell>
        <mxCell id="ECKgNGIZ7LsBk5RA_S7d-73" value="int wong_deliveries" style="text;html=1;align=center;verticalAlign=middle;resizable=0;points=[];autosize=1;strokeColor=none;fillColor=none;" vertex="1" parent="ECKgNGIZ7LsBk5RA_S7d-28">
          <mxGeometry x="30" y="155" width="130" height="30" as="geometry" />
        </mxCell>
        <mxCell id="ECKgNGIZ7LsBk5RA_S7d-76" value="new day" style="text;html=1;align=center;verticalAlign=middle;whiteSpace=wrap;rounded=0;" vertex="1" parent="ECKgNGIZ7LsBk5RA_S7d-28">
          <mxGeometry x="270" y="50" width="60" height="30" as="geometry" />
        </mxCell>
        <mxCell id="ECKgNGIZ7LsBk5RA_S7d-38" value="int curent_letter_index" style="text;html=1;align=center;verticalAlign=middle;whiteSpace=wrap;rounded=0;" vertex="1" parent="ECKgNGIZ7LsBk5RA_S7d-28">
          <mxGeometry x="610" y="77" width="140" height="30" as="geometry" />
        </mxCell>
        <mxCell id="ECKgNGIZ7LsBk5RA_S7d-74" value="int curent_mailbox_index" style="text;html=1;align=center;verticalAlign=middle;whiteSpace=wrap;rounded=0;" vertex="1" parent="ECKgNGIZ7LsBk5RA_S7d-28">
          <mxGeometry x="610" y="127" width="140" height="30" as="geometry" />
        </mxCell>
        <mxCell id="ECKgNGIZ7LsBk5RA_S7d-70" value="&lt;div&gt;update &lt;/div&gt;&lt;div&gt;(loop)&lt;/div&gt;" style="text;html=1;align=center;verticalAlign=middle;resizable=0;points=[];autosize=1;strokeColor=none;fillColor=none;" vertex="1" parent="ECKgNGIZ7LsBk5RA_S7d-28">
          <mxGeometry x="610" y="40" width="60" height="40" as="geometry" />
        </mxCell>
        <mxCell id="ECKgNGIZ7LsBk5RA_S7d-67" value="timer.py" style="text;html=1;align=center;verticalAlign=middle;whiteSpace=wrap;rounded=0;" vertex="1" parent="ECKgNGIZ7LsBk5RA_S7d-28">
          <mxGeometry x="290" y="80" width="60" height="30" as="geometry" />
        </mxCell>
        <mxCell id="ECKgNGIZ7LsBk5RA_S7d-94" value="int curent_screen_index" style="text;html=1;align=center;verticalAlign=middle;whiteSpace=wrap;rounded=0;" vertex="1" parent="ECKgNGIZ7LsBk5RA_S7d-28">
          <mxGeometry x="610" y="185" width="140" height="30" as="geometry" />
        </mxCell>
        <mxCell id="ECKgNGIZ7LsBk5RA_S7d-95" value="int curent_screen_index" style="text;html=1;align=center;verticalAlign=middle;whiteSpace=wrap;rounded=0;" vertex="1" parent="ECKgNGIZ7LsBk5RA_S7d-28">
          <mxGeometry x="290" y="120" width="140" height="30" as="geometry" />
        </mxCell>
        <mxCell id="ECKgNGIZ7LsBk5RA_S7d-32" style="edgeStyle=orthogonalEdgeStyle;rounded=0;orthogonalLoop=1;jettySize=auto;html=1;exitX=0.5;exitY=0;exitDx=0;exitDy=0;exitPerimeter=0;" edge="1" parent="1" source="ECKgNGIZ7LsBk5RA_S7d-31" target="ECKgNGIZ7LsBk5RA_S7d-30">
          <mxGeometry relative="1" as="geometry">
            <Array as="points">
              <mxPoint x="1225" y="1510" />
              <mxPoint x="1175" y="1510" />
            </Array>
          </mxGeometry>
        </mxCell>
        <mxCell id="ECKgNGIZ7LsBk5RA_S7d-33" value="load_letters()" style="edgeLabel;html=1;align=center;verticalAlign=middle;resizable=0;points=[];" vertex="1" connectable="0" parent="ECKgNGIZ7LsBk5RA_S7d-32">
          <mxGeometry x="-0.1983" y="-2" relative="1" as="geometry">
            <mxPoint x="4" y="-68" as="offset" />
          </mxGeometry>
        </mxCell>
        <mxCell id="ECKgNGIZ7LsBk5RA_S7d-31" value="&lt;div&gt;Mailboxes.csv&lt;/div&gt;&lt;div&gt;Letters.csv&lt;/div&gt;" style="shape=cylinder3;whiteSpace=wrap;html=1;boundedLbl=1;backgroundOutline=1;size=15;" vertex="1" parent="1">
          <mxGeometry x="1180" y="1530" width="90" height="80" as="geometry" />
        </mxCell>
        <mxCell id="ECKgNGIZ7LsBk5RA_S7d-42" style="edgeStyle=orthogonalEdgeStyle;rounded=0;orthogonalLoop=1;jettySize=auto;html=1;entryX=0.494;entryY=0.986;entryDx=0;entryDy=0;entryPerimeter=0;" edge="1" parent="1" source="ECKgNGIZ7LsBk5RA_S7d-31" target="ECKgNGIZ7LsBk5RA_S7d-34">
          <mxGeometry relative="1" as="geometry">
            <Array as="points">
              <mxPoint x="1225" y="1510" />
              <mxPoint x="1279" y="1510" />
            </Array>
          </mxGeometry>
        </mxCell>
        <mxCell id="ECKgNGIZ7LsBk5RA_S7d-43" value="load_mailboxes()" style="edgeLabel;html=1;align=center;verticalAlign=middle;resizable=0;points=[];" vertex="1" connectable="0" parent="ECKgNGIZ7LsBk5RA_S7d-42">
          <mxGeometry x="0.291" relative="1" as="geometry">
            <mxPoint x="1" y="-38" as="offset" />
          </mxGeometry>
        </mxCell>
        <mxCell id="ECKgNGIZ7LsBk5RA_S7d-47" value="View" style="swimlane;whiteSpace=wrap;html=1;" vertex="1" parent="1">
          <mxGeometry x="1140" y="530" width="810" height="200" as="geometry" />
        </mxCell>
        <mxCell id="ECKgNGIZ7LsBk5RA_S7d-57" value="create_mailboxes_buttons" style="text;html=1;align=center;verticalAlign=middle;whiteSpace=wrap;rounded=0;" vertex="1" parent="ECKgNGIZ7LsBk5RA_S7d-47">
          <mxGeometry x="60" y="70" width="60" height="30" as="geometry" />
        </mxCell>
        <mxCell id="ECKgNGIZ7LsBk5RA_S7d-60" value="update_letter_ui" style="text;html=1;align=center;verticalAlign=middle;whiteSpace=wrap;rounded=0;" vertex="1" parent="ECKgNGIZ7LsBk5RA_S7d-47">
          <mxGeometry x="680" y="70" width="60" height="30" as="geometry" />
        </mxCell>
        <mxCell id="ECKgNGIZ7LsBk5RA_S7d-61" value="create_mailboxes_buttons" style="text;html=1;align=center;verticalAlign=middle;whiteSpace=wrap;rounded=0;" vertex="1" parent="ECKgNGIZ7LsBk5RA_S7d-47">
          <mxGeometry x="110" y="-160" width="60" height="30" as="geometry" />
        </mxCell>
        <mxCell id="ECKgNGIZ7LsBk5RA_S7d-62" value="new run :" style="text;html=1;align=center;verticalAlign=middle;whiteSpace=wrap;rounded=0;" vertex="1" parent="ECKgNGIZ7LsBk5RA_S7d-47">
          <mxGeometry x="10" y="40" width="60" height="30" as="geometry" />
        </mxCell>
        <mxCell id="ECKgNGIZ7LsBk5RA_S7d-63" value="create_screens" style="text;html=1;align=center;verticalAlign=middle;whiteSpace=wrap;rounded=0;" vertex="1" parent="ECKgNGIZ7LsBk5RA_S7d-47">
          <mxGeometry x="40" y="100" width="60" height="30" as="geometry" />
        </mxCell>
        <mxCell id="ECKgNGIZ7LsBk5RA_S7d-64" value="update (loop)" style="text;html=1;align=center;verticalAlign=middle;whiteSpace=wrap;rounded=0;" vertex="1" parent="ECKgNGIZ7LsBk5RA_S7d-47">
          <mxGeometry x="610" y="40" width="60" height="30" as="geometry" />
        </mxCell>
        <mxCell id="ECKgNGIZ7LsBk5RA_S7d-88" value="update_labels" style="text;html=1;align=center;verticalAlign=middle;whiteSpace=wrap;rounded=0;" vertex="1" parent="ECKgNGIZ7LsBk5RA_S7d-47">
          <mxGeometry x="680" y="110" width="60" height="30" as="geometry" />
        </mxCell>
        <mxCell id="ECKgNGIZ7LsBk5RA_S7d-89" value="update_timer" style="text;html=1;align=center;verticalAlign=middle;whiteSpace=wrap;rounded=0;" vertex="1" parent="ECKgNGIZ7LsBk5RA_S7d-47">
          <mxGeometry x="670" y="150" width="60" height="30" as="geometry" />
        </mxCell>
        <mxCell id="ECKgNGIZ7LsBk5RA_S7d-91" value="new day" style="text;html=1;align=center;verticalAlign=middle;whiteSpace=wrap;rounded=0;" vertex="1" parent="ECKgNGIZ7LsBk5RA_S7d-47">
          <mxGeometry x="290" y="40" width="60" height="30" as="geometry" />
        </mxCell>
        <mxCell id="ECKgNGIZ7LsBk5RA_S7d-48" value="Controller" style="swimlane;whiteSpace=wrap;html=1;" vertex="1" parent="1">
          <mxGeometry x="1140" y="830" width="820" height="200" as="geometry" />
        </mxCell>
        <mxCell id="ECKgNGIZ7LsBk5RA_S7d-51" value="new run :" style="text;html=1;align=center;verticalAlign=middle;whiteSpace=wrap;rounded=0;" vertex="1" parent="ECKgNGIZ7LsBk5RA_S7d-48">
          <mxGeometry x="10" y="30" width="60" height="30" as="geometry" />
        </mxCell>
        <mxCell id="ECKgNGIZ7LsBk5RA_S7d-52" value="&lt;div&gt;ask&lt;/div&gt;&lt;div&gt;load_data&lt;/div&gt;" style="text;html=1;align=center;verticalAlign=middle;whiteSpace=wrap;rounded=0;" vertex="1" parent="ECKgNGIZ7LsBk5RA_S7d-48">
          <mxGeometry x="80" y="150" width="60" height="30" as="geometry" />
        </mxCell>
        <mxCell id="ECKgNGIZ7LsBk5RA_S7d-50" value="ask clear_data()" style="text;html=1;align=center;verticalAlign=middle;whiteSpace=wrap;rounded=0;" vertex="1" parent="ECKgNGIZ7LsBk5RA_S7d-48">
          <mxGeometry x="10" y="150" width="60" height="30" as="geometry" />
        </mxCell>
        <mxCell id="ECKgNGIZ7LsBk5RA_S7d-53" value="&lt;div&gt;ask&lt;/div&gt;&lt;div&gt;list letters_today&lt;/div&gt;" style="text;html=1;align=center;verticalAlign=middle;whiteSpace=wrap;rounded=0;" vertex="1" parent="ECKgNGIZ7LsBk5RA_S7d-48">
          <mxGeometry x="145" y="150" width="90" height="30" as="geometry" />
        </mxCell>
        <mxCell id="ECKgNGIZ7LsBk5RA_S7d-56" value="create_mailboxes" style="text;html=1;align=center;verticalAlign=middle;whiteSpace=wrap;rounded=0;" vertex="1" parent="ECKgNGIZ7LsBk5RA_S7d-48">
          <mxGeometry x="260" y="150" width="60" height="30" as="geometry" />
        </mxCell>
        <mxCell id="ECKgNGIZ7LsBk5RA_S7d-59" value="post_letter()" style="text;html=1;align=center;verticalAlign=middle;whiteSpace=wrap;rounded=0;" vertex="1" parent="ECKgNGIZ7LsBk5RA_S7d-48">
          <mxGeometry x="670" y="60" width="60" height="30" as="geometry" />
        </mxCell>
        <mxCell id="ECKgNGIZ7LsBk5RA_S7d-66" value="update (loop)" style="text;html=1;align=center;verticalAlign=middle;whiteSpace=wrap;rounded=0;" vertex="1" parent="ECKgNGIZ7LsBk5RA_S7d-48">
          <mxGeometry x="640" y="30" width="60" height="30" as="geometry" />
        </mxCell>
        <mxCell id="ECKgNGIZ7LsBk5RA_S7d-68" value="change screen" style="text;html=1;align=center;verticalAlign=middle;whiteSpace=wrap;rounded=0;" vertex="1" parent="ECKgNGIZ7LsBk5RA_S7d-48">
          <mxGeometry x="650" y="90" width="60" height="30" as="geometry" />
        </mxCell>
        <mxCell id="ECKgNGIZ7LsBk5RA_S7d-72" value="&lt;div&gt;set&lt;/div&gt;&lt;div&gt;&amp;nbsp;int current_day&lt;/div&gt;" style="text;html=1;align=center;verticalAlign=middle;whiteSpace=wrap;rounded=0;" vertex="1" parent="ECKgNGIZ7LsBk5RA_S7d-48">
          <mxGeometry x="20" y="70" width="110" height="30" as="geometry" />
        </mxCell>
        <mxCell id="ECKgNGIZ7LsBk5RA_S7d-75" value="new day" style="text;html=1;align=center;verticalAlign=middle;whiteSpace=wrap;rounded=0;" vertex="1" parent="ECKgNGIZ7LsBk5RA_S7d-48">
          <mxGeometry x="300" y="40" width="60" height="30" as="geometry" />
        </mxCell>
        <mxCell id="ECKgNGIZ7LsBk5RA_S7d-90" value="reset_timer" style="text;html=1;align=center;verticalAlign=middle;whiteSpace=wrap;rounded=0;" vertex="1" parent="ECKgNGIZ7LsBk5RA_S7d-48">
          <mxGeometry x="330" y="70" width="60" height="30" as="geometry" />
        </mxCell>
        <mxCell id="ECKgNGIZ7LsBk5RA_S7d-93" value="reset_screen" style="text;html=1;align=center;verticalAlign=middle;whiteSpace=wrap;rounded=0;" vertex="1" parent="ECKgNGIZ7LsBk5RA_S7d-48">
          <mxGeometry x="330" y="120" width="60" height="30" as="geometry" />
        </mxCell>
        <mxCell id="ECKgNGIZ7LsBk5RA_S7d-96" value="update_mailbox_index" style="text;html=1;align=center;verticalAlign=middle;whiteSpace=wrap;rounded=0;" vertex="1" parent="ECKgNGIZ7LsBk5RA_S7d-48">
          <mxGeometry x="680" y="140" width="60" height="30" as="geometry" />
        </mxCell>
        <mxCell id="ECKgNGIZ7LsBk5RA_S7d-44" value="list discarder letters" style="text;html=1;align=center;verticalAlign=middle;resizable=0;points=[];autosize=1;strokeColor=none;fillColor=none;" vertex="1" parent="1">
          <mxGeometry x="960" y="1350" width="130" height="30" as="geometry" />
        </mxCell>
        <mxCell id="ECKgNGIZ7LsBk5RA_S7d-45" value="Class Letters" style="text;html=1;align=center;verticalAlign=middle;whiteSpace=wrap;rounded=0;" vertex="1" parent="1">
          <mxGeometry x="1360" y="1480" width="60" height="30" as="geometry" />
        </mxCell>
        <mxCell id="ECKgNGIZ7LsBk5RA_S7d-46" value="Class Mailboxes" style="text;html=1;align=center;verticalAlign=middle;whiteSpace=wrap;rounded=0;" vertex="1" parent="1">
          <mxGeometry x="1440" y="1480" width="60" height="30" as="geometry" />
        </mxCell>
        <mxCell id="ECKgNGIZ7LsBk5RA_S7d-58" value="create_labels" style="text;html=1;align=center;verticalAlign=middle;whiteSpace=wrap;rounded=0;" vertex="1" parent="1">
          <mxGeometry x="1200" y="740" width="60" height="30" as="geometry" />
        </mxCell>
      </root>
    </mxGraphModel>
  </diagram>
</mxfile>
